<svg version="1.1" xmlns="http://www.w3.org/2000/svg" xmlns:xlink="http://www.w3.org/1999/xlink">
	<defs>
		<symbol id="menu" viewBox="0 0 20 20">
			<path d="M0 3h20v2h-20v-2zM0 9h20v2h-20v-2zM0 15h20v2h-20v-2z" />
		</symbol>
		
		<symbol id="twitter" viewBox="0 0 24 24">
			<path d="M18.89 7.012c0.808-0.496 1.343-1.173 1.605-2.034-0.786 0.417-1.569 0.703-2.351 0.861-0.703-0.756-1.593-1.14-2.66-1.14-1.043 0-1.924 0.366-2.643 1.078-0.715 0.717-1.076 1.588-1.076 2.605 0 0.309 0.039 0.585 0.117 0.819-3.076-0.105-5.622-1.381-7.628-3.837-0.34 0.601-0.51 1.213-0.51 1.846 0 1.301 0.549 2.332 1.645 3.089-0.625-0.053-1.176-0.211-1.645-0.47 0 0.929 0.273 1.705 0.82 2.388 0.549 0.676 1.254 1.107 2.115 1.291-0.312 0.080-0.641 0.118-0.979 0.118-0.312 0-0.533-0.026-0.664-0.083 0.23 0.757 0.664 1.371 1.291 1.841 0.625 0.472 1.344 0.721 2.152 0.743-1.332 1.045-2.855 1.562-4.578 1.562-0.422 0-0.721-0.006-0.902-0.038 1.697 1.102 3.586 1.649 5.676 1.649 2.139 0 4.029-0.542 5.674-1.626 1.645-1.078 2.859-2.408 3.639-3.974 0.784-1.564 1.172-3.192 1.172-4.892v-0.468c0.758-0.57 1.371-1.212 1.84-1.921-0.68 0.293-1.383 0.492-2.11 0.593z" />
		</symbol>
		
		<symbol id="facebook" viewBox="0 0 24 24">
			<path d="M13 10h3v3h-3v7h-3v-7h-3v-3h3v-1.255c0-1.189 0.374-2.691 1.118-3.512 0.744-0.823 1.673-1.233 2.786-1.233h2.096v3h-2.1c-0.498 0-0.9 0.402-0.9 0.899v2.101z" />
		</symbol>
		
		<symbol id="instagram" viewBox="0 0 24 24">
			<path d="M7 1c-1.657 0-3.158 0.673-4.243 1.757s-1.757 2.586-1.757 4.243v10c0 1.657 0.673 3.158 1.757 4.243s2.586 1.757 4.243 1.757h10c1.657 0 3.158-0.673 4.243-1.757s1.757-2.586 1.757-4.243v-10c0-1.657-0.673-3.158-1.757-4.243s-2.586-1.757-4.243-1.757zM7 3h10c1.105 0 2.103 0.447 2.828 1.172s1.172 1.723 1.172 2.828v10c0 1.105-0.447 2.103-1.172 2.828s-1.723 1.172-2.828 1.172h-10c-1.105 0-2.103-0.447-2.828-1.172s-1.172-1.723-1.172-2.828v-10c0-1.105 0.447-2.103 1.172-2.828s1.723-1.172 2.828-1.172zM16.989 11.223c-0.15-0.972-0.571-1.857-1.194-2.567-0.754-0.861-1.804-1.465-3.009-1.644-0.464-0.074-0.97-0.077-1.477-0.002-1.366 0.202-2.521 0.941-3.282 1.967s-1.133 2.347-0.93 3.712 0.941 2.521 1.967 3.282 2.347 1.133 3.712 0.93 2.521-0.941 3.282-1.967 1.133-2.347 0.93-3.712zM15.011 11.517c0.122 0.82-0.1 1.609-0.558 2.227s-1.15 1.059-1.969 1.18-1.609-0.1-2.227-0.558-1.059-1.15-1.18-1.969 0.1-1.609 0.558-2.227 1.15-1.059 1.969-1.18c0.313-0.046 0.615-0.042 0.87-0.002 0.74 0.11 1.366 0.47 1.818 0.986 0.375 0.428 0.63 0.963 0.72 1.543zM17.5 7.5c0.552 0 1-0.448 1-1s-0.448-1-1-1-1 0.448-1 1 0.448 1 1 1z"></path>
		</symbol>
		
		<symbol id="bkash" viewBox="-16.1997 -11.07275 140.3974 66.4365">
			<g fill="none">
				<path fill="#DF146E" d="M0 12.296c.297.027.597.08.917.08.301 0 .575-.053.917-.08v9.816c.964-1.647 2.18-2.733 3.967-2.733 3.23 0 4.63 3.206 4.63 6.149 0 3.527-1.882 6.898-5.181 6.898-1.879 0-2.842-1.163-3.257-1.885-.549.477-1.032 1.062-1.559 1.59H0zm1.786 14.426c0 2.863 1.217 4.855 3.208 4.855 2.595 0 3.419-3.472 3.419-5.942 0-2.862-.94-5.118-3.185-5.145-2.613-.025-3.442 3.078-3.442 6.232z"/>
				<path fill="#221F1F" d="M18.866 18.645l-1.949 2.504c1.832 2.681 3.733 5.299 5.572 8.008l1.852 2.909v.147c-.456-.028-.871-.086-1.262-.086-.433 0-.867.058-1.28.086-.505-.932-1.012-1.803-1.584-2.65l-5.001-7.422c-.112-.118-.387-.204-.387-.089v10.16c-.366-.028-.685-.086-1.007-.086-.344 0-.688.058-1.009.086V12.296c.32.029.665.09 1.009.09.321 0 .641-.061 1.007-.09v8.998c.025.172.344.058.573-.173.417-.408.895-1.022 1.215-1.426l5.641-7.4c.296.029.592.09.919.09.273 0 .569-.061.891-.09zm15.175 11.338c0 1.035-.07 1.569 1.284 1.223v.582c-.163.081-.437.211-.687.265-1.193.24-2.182.029-2.364-1.537l-.204.239c-.962 1.114-2.015 1.671-3.397 1.671-1.622 0-3.043-1.273-3.043-3.239 0-3.021 2.08-3.421 4.239-3.818 1.813-.347 2.427-.501 2.427-1.775 0-1.96-.961-3.104-2.681-3.104-1.671 0-2.564 1.248-2.729 1.832h-.251v-1.487c1.1-.871 2.341-1.456 3.69-1.456 2.41 0 3.716 1.456 3.716 4.455zm-1.836-4.375l-.804.187c-1.555.342-3.898.61-3.898 3.023 0 1.668.855 2.493 2.249 2.493.618 0 1.398-.502 1.83-1.007.167-.186.624-.64.624-.824v-3.872zm5.918 4.03c.547 1.039 1.558 1.965 2.63 1.965 1.126 0 2.251-1.011 2.251-2.416 0-3.579-5.412-1.244-5.412-5.885 0-2.546 1.675-3.923 3.739-3.923 1.191 0 2.177.395 2.589.687-.227.61-.411 1.246-.548 1.885h-.207c-.298-.875-1.1-1.755-1.951-1.755-1.143 0-2.084.775-2.084 2.205 0 3.394 5.411 1.589 5.411 5.834 0 2.837-2.199 4.191-4.22 4.191-.937 0-2.065-.295-2.867-.849.186-.636.392-1.272.485-1.939zm9.512-17.342c.298.027.593.08.915.08.302 0 .575-.053.917-.08v9.655c.801-1.621 2.065-2.572 3.693-2.572 2.656 0 3.689 1.829 3.689 5.169v7.666c-.347-.028-.62-.083-.916-.083-.323 0-.621.056-.92.083v-7.057c0-2.943-.595-4.402-2.542-4.402-2.064 0-3.003 1.488-3.003 4.24v7.219c-.341-.028-.614-.083-.917-.083-.321 0-.617.056-.915.083V12.296z"/>
				<path fill="#DF146E" d="M105.814 44.291H65.686c-1.201 0-2.182-.983-2.182-2.184V2.186C63.504.982 64.485 0 65.686 0h40.128c1.203 0 2.184.982 2.184 2.186v39.921c0 1.201-.981 2.184-2.184 2.184"/>
				<path fill="#FFF" d="M95.398 24.251l-14.107-2.246 1.909 8.329zm.572-.682L84.878 8.16l-3.623 13.106zm-15.402-2.482L68.945 6.239l15.221 1.819zm-5.639-6.154l-6.449-6.08h1.695zm24.504 1.15l-2.729 7.403-4.426-6.118zM84.921 30.232l10.71-4.3.454-1.365zm-8.933 7.821l4.589-16.102 2.326 10.479zm24.099-21.914l-1.128 3.056 4.059-.07z"/>
			</g>
		</symbol>
		
		<symbol id="card" viewBox="0 0 36 28">
			<path d="M0 23.5v-9.5h36v9.5c0 1.375-1.125 2.5-2.5 2.5h-31c-1.375 0-2.5-1.125-2.5-2.5zM10 20v2h6v-2h-6zM4 20v2h4v-2h-4zM33.5 2c1.375 0 2.5 1.125 2.5 2.5v3.5h-36v-3.5c0-1.375 1.125-2.5 2.5-2.5h31z"/>
		</symbol>
	</defs>
</svg>
